<?xml version="1.0" encoding="utf-8"?>
<!-- Generator: Adobe Illustrator 22.1.0, SVG Export Plug-In . SVG Version: 6.00 Build 0)  -->
<svg version="1.1" id="Calque_1" xmlns="http://www.w3.org/2000/svg" xmlns:xlink="http://www.w3.org/1999/xlink" x="0px" y="0px"
	 viewBox="0 0 500 140" style="enable-background:new 0 0 500 140;" xml:space="preserve">
<style type="text/css">
	.st0{fill:none;stroke:#2B576A;stroke-width:3;stroke-miterlimit:10;}
	.st1{fill:#2B576A;}
	.st2{fill:#2A586B;}
</style>
<g id="Calque_1_1_">
</g>
<g id="Calque_2_1_">
	<circle class="st0" cx="45.6" cy="76.5" r="4.6"/>
	<path class="st0" d="M151.8,73.4c0,0-8.5,24.1-41,39.9"/>
	<path class="st0" d="M155.9,62.2c0,0-0.5,3.7-1.5,6.2"/>
	<g>
		<path class="st1" d="M185.4,78.5c0.6-8.8,0.9-18.9,1.3-30.4c0.4-11.5,0.5-19.8,0.5-24.7v-2.7c0.7,0,1.3,0,1.8,0s1.1,0,1.8,0
			l-0.8,18.5l-0.9,32.4c0,2.1-0.1,4.4-0.1,6.9c-0.7,0-1.2,0-1.8,0C186.5,78.5,186,78.5,185.4,78.5z M189.9,47.8
			c3.5-3.7,7.6-8.4,12.2-13.8c4.6-5.4,8.4-9.8,11.1-13.3c0.7,0,1.4,0,2.1,0c0.7,0,1.4,0,2.1,0l-23.7,26.9l25.8,30.9
			c-0.9,0-1.6,0-2.3,0c-0.6,0-1.3,0-2.2,0l-2.3-3.2c-0.6-0.8-1.2-1.5-1.8-2.2s-1.8-2.2-3.6-4.4L189.9,47.8z"/>
		<path class="st1" d="M225.4,78.5c0.4-4.2,0.6-11.6,1.1-22.1c0.4-10.5,0.6-17.4,0.6-20.6c0.7,0,1.2,0,1.5,0c0.4,0,0.9,0,1.6,0
			c-0.4,5.4-0.7,12.6-1.1,21.9c-0.4,9.2-0.6,16.1-0.6,20.8c-0.7,0-1.2,0-1.6,0C226.5,78.5,226.1,78.5,225.4,78.5z M226.8,25l0.1-4.2
			c0.7,0,1.3,0,2,0c0.7,0,1.4,0,2,0l-0.1,4.2c-0.7,0-1.3-0.1-2-0.1C228.2,24.9,227.5,24.9,226.8,25z"/>
		<path class="st1" d="M239.9,78.5l1.3-25.8l0.4-12.2c0-2.2,0.1-3.7,0.1-4.8c0.7,0,1.2,0,1.5,0s0.8,0,1.5,0l-0.6,9.7
			c0.6-1.3,1.1-2.3,1.4-3c0.4-0.7,0.9-1.4,1.5-2.2c0.7-0.8,1.4-1.5,2.3-2.2c0.9-0.7,2-1.3,3.3-1.8s2.6-0.8,4-1.1
			c1.3-0.2,2.7-0.4,4-0.4c2.2,0,4.3,0.2,6.4,0.8c2.1,0.6,3.9,1.4,5.1,2.8c1.3,1.4,2.3,2.8,2.8,4.6c0.5,1.8,0.8,3.5,0.8,5.5
			c0,0.8,0,2.2-0.1,3.9l-0.8,19.3l-0.1,6.9c-0.6,0-1.1,0-1.5,0c-0.5,0-1.1,0-1.5,0c0.2-3.5,0.5-6.9,0.6-10.1l0.6-10.9
			c0.2-4,0.4-6.9,0.4-8.7c0-1.9-0.2-3.5-0.7-5c-0.5-1.5-1.4-2.7-2.6-3.6c-1.2-0.9-2.7-1.6-4.3-2.1c-1.6-0.5-3.4-0.7-5.3-0.7
			c-2.5,0-4.7,0.4-6.7,1.1c-1.9,0.7-3.4,1.8-4.8,3.2c-1.4,1.4-2.5,3-3.4,5.1c-0.7,1.5-1.2,3.6-1.5,6.4c-0.4,2.3-0.6,6.2-0.8,11.6
			c-0.2,5.4-0.4,9.9-0.4,13.7c-0.7,0-1.2,0-1.6,0C241,78.5,240.6,78.5,239.9,78.5z"/>
		<path class="st1" d="M316,74.4c-0.2,1.1-0.4,2.1-0.5,3.3c-2.2,0.7-4.1,1.2-5.8,1.4c-1.8,0.2-3.5,0.4-5.4,0.4c-3.2,0-6-0.5-8.4-1.4
			c-2.5-0.9-4.6-2.5-6.2-4.6c-1.8-2.1-2.9-4.6-3.7-7.1c-0.7-2.7-1.1-5.5-1.1-8.4c0-3.9,0.6-7.6,1.9-11c1.3-3.4,3.4-6.3,6.2-8.5
			c2.9-2.2,6.4-3.4,10.8-3.4c2.9,0,5.6,0.6,8.1,1.8c2.3,1.2,4.2,3,5.6,5.7c1.4,2.7,2,5.8,2,9.5c0,0.7,0,1.3-0.1,2H288
			c-0.1,1.9-0.2,3.2-0.2,4.1c0,2.7,0.4,5.3,1.1,7.7c0.7,2.5,1.9,4.6,3.4,6.3c1.5,1.6,3.3,2.9,5.4,3.7c2.1,0.8,4.3,1.2,6.5,1.2
			C307.7,77,311.6,76.2,316,74.4z M288.4,51.4h28.1c0-2-0.1-3.4-0.4-4.4c-0.2-1.1-0.6-2.1-1.1-3.3c-0.5-1.1-1.1-2.1-1.8-2.8
			c-0.7-0.8-1.5-1.5-2.5-2c-0.9-0.6-2-0.9-3.2-1.3c-1.2-0.2-2.3-0.5-3.6-0.5c-1.4,0-2.8,0.1-4.1,0.5c-1.3,0.4-2.6,0.8-3.6,1.4
			s-2.1,1.4-3.2,2.2c-0.9,0.9-1.8,1.9-2.3,3c-0.6,1.1-1.1,2.1-1.4,3C289.1,48.5,288.7,49.8,288.4,51.4z"/>
		<path class="st1" d="M326.6,78.5l0.5-5.7c0.1-1.2,0.1-2.3,0.2-3.5l1.1-28.2c0-2.1,0-3.9,0-5.3c0.6,0,1.1,0,1.5,0
			c0.5,0,1.1,0,1.5,0l-0.4,8.9c0.8-1.8,1.6-3,2.3-4.1c0.7-0.9,1.6-2,2.8-2.8c1.2-0.8,2.6-1.6,4.1-2.1c1.5-0.5,3.2-0.8,4.8-0.8
			c1.4,0,2.8,0.2,4.1,0.6c1.3,0.4,2.3,0.9,3.3,1.5c0.9,0.6,1.6,1.3,2.2,2c0.6,0.7,1.1,1.5,1.4,2.3c0.4,0.8,0.7,1.9,0.9,3.3
			c0.6-1.1,1.1-2.1,1.5-2.8c0.5-0.8,1.2-1.6,1.9-2.5c0.8-0.8,1.8-1.6,2.8-2.2c1.1-0.6,2.3-1.2,3.7-1.5c1.4-0.4,2.7-0.6,4.2-0.6
			c2.2,0,4.2,0.4,6.2,1.2s3.5,2.1,4.6,3.9c1.1,1.8,1.6,3.9,1.6,6.4c0,1.4-0.1,3.5-0.2,6.3c-0.2,2.8-0.4,6.8-0.6,11.9
			c-0.2,5.1-0.4,9.8-0.4,13.9c-0.7,0-1.2,0-1.6,0c-0.4,0-0.9,0-1.6,0c0.2-3.5,0.5-7.6,0.7-12.4l0.6-11.7c0.1-2.9,0.2-5.3,0.2-7.2
			c0-0.9,0-1.9-0.1-2.6c-0.1-0.7-0.2-1.4-0.6-2.1c-0.2-0.7-0.7-1.4-1.2-2c-0.6-0.6-1.2-1.2-1.9-1.6c-0.7-0.5-1.6-0.8-2.7-1.1
			s-2.2-0.4-3.4-0.4c-1.8,0-3.3,0.2-4.8,0.8c-1.4,0.6-2.8,1.4-3.9,2.3c-1.2,1.1-2.1,2.2-2.8,3.6c-0.7,1.4-1.4,3.4-1.9,5.8
			c-0.5,2.1-0.7,5.8-0.8,11.3l-0.5,17c-0.7,0-1.2,0-1.6,0c-0.5,0-0.9,0-1.6,0c0.2-3.9,0.5-7.6,0.6-11.3l0.5-10.6
			c0.1-3.4,0.2-6.2,0.2-8.4c0-2.1-0.2-3.7-0.6-4.8c-0.4-1.1-0.9-2.1-1.8-3c-0.8-0.9-1.9-1.5-3.2-2.1c-1.3-0.5-2.6-0.7-4.1-0.7
			c-1.6,0-3.2,0.2-4.7,0.8c-1.5,0.6-2.8,1.4-4,2.5c-1.2,1.1-2.1,2.3-2.9,3.9c-0.8,1.5-1.4,3.6-2,6.1c-0.5,2.2-0.7,6.1-0.9,11.8
			c-0.2,6.2-0.4,11.6-0.4,15.9c-0.7,0-1.2,0-1.6,0C327.6,78.4,327.3,78.5,326.6,78.5z"/>
		<path class="st1" d="M395.8,40.3c0.2-0.9,0.4-2.1,0.5-3.3c2.7-0.8,5-1.3,7-1.6c2-0.4,4-0.5,6-0.5c2.3,0,4.6,0.2,6.5,0.7
			c2,0.5,3.6,1.2,4.9,2.2c1.3,1.1,2.1,2.2,2.6,3.5c0.5,1.3,0.6,2.7,0.6,4.1c0,1.4,0,3.2-0.1,5.4c-0.1,2.1-0.2,4.4-0.4,7
			c-0.1,2.5-0.4,5.6-0.5,9.2c-0.1,3.7-0.2,6.4-0.2,8.1v3.5c-0.7,0-1.3,0-1.6,0c-0.5,0-1.1,0-1.6,0c0.4-4.3,0.6-7.8,0.8-10.5
			c0.1-2.7,0.2-5.6,0.4-8.7c0.1-3,0.2-6,0.4-8.7c-0.8,0.7-1.4,1.3-1.9,1.6c-0.5,0.4-0.9,0.7-1.4,0.9c-0.5,0.2-1.2,0.6-1.9,0.8
			c-0.7,0.4-1.4,0.6-2,0.7c-0.6,0.2-2.1,0.7-4.4,1.3c-2.3,0.7-4,1.2-5,1.5c-2.2,0.8-4,1.5-5.3,2.2c-1.3,0.8-2.5,1.6-3.4,2.6
			c-0.8,0.8-1.4,1.6-1.8,2.6c-0.5,1.1-0.6,2.2-0.6,3.4c0,1.9,0.5,3.4,1.5,4.8c1.1,1.4,2.3,2.3,3.9,2.8c1.5,0.6,3.5,0.8,5.6,0.8
			c1.1,0,2.2-0.1,3.2-0.2c1.1-0.1,2-0.4,2.9-0.5c0.9-0.2,2.2-0.6,4-1.2c-0.2,1.1-0.5,2.1-0.6,3.3c-2.1,0.5-3.9,0.7-5.1,0.8
			c-1.3,0.1-2.6,0.2-3.7,0.2c-2.2,0-4.2-0.2-6.1-0.6c-1.9-0.4-3.4-1.1-4.7-2.1s-2.2-2.3-2.8-3.7c-0.6-1.4-0.9-2.9-0.9-4.4
			c0-1.2,0.2-2.3,0.6-3.4c0.4-1.2,0.9-2.2,1.6-3.2c0.6-0.8,1.5-1.6,2.6-2.3c1.3-0.9,2.6-1.6,4.1-2.3c1.8-0.7,3.6-1.4,5.6-2
			c0.6-0.1,2.7-0.8,6.5-1.9c1.8-0.5,3.3-1.1,4.8-1.8c1.5-0.7,2.7-1.8,3.5-3c0.8-1.3,1.3-2.6,1.3-3.9c0-0.9-0.2-1.9-0.6-2.8
			c-0.4-0.9-1.1-1.8-2.1-2.6c-1.1-0.8-2.2-1.3-3.7-1.6c-1.5-0.4-3-0.5-4.7-0.5c-1.9,0-3.7,0.1-5.4,0.4c-1.6,0.2-3.2,0.6-4.2,0.9
			C399,38.9,397.6,39.5,395.8,40.3z"/>
		<path class="st1" d="M449.9,75.8c-0.2,0.8-0.4,1.8-0.5,2.7c-2.1,0.6-4.1,0.8-5.8,0.8c-1.5,0-2.8-0.2-4-0.6
			c-1.2-0.4-2.1-0.9-2.8-1.9c-0.7-0.9-1.2-2-1.4-3c-0.2-1.2-0.4-2.3-0.4-3.6c0-0.2,0-0.6,0-1.1s0.1-1.5,0.1-3.2l1.3-28.1h-4.9
			c0.1-0.8,0.1-1.5,0.2-2.3h4.8c0.1-1.8,0.2-4.4,0.4-7.9c0.9-0.1,1.9-0.4,2.6-0.6c-0.2,4.6-0.2,7.4-0.2,8.5h11.8
			c-0.1,0.8-0.1,1.5-0.2,2.3h-11.8l-1.3,29v1.8c0,2.3,0.2,4.1,0.8,5.1c0.5,1.1,1.3,1.9,2.2,2.3c0.9,0.5,1.9,0.7,2.9,0.7
			c0.7,0,1.5-0.1,2.2-0.2C446.5,76.8,447.9,76.3,449.9,75.8z"/>
		<path class="st1" d="M456.4,78.5c0.4-4.2,0.6-11.6,1.1-22.1c0.4-10.5,0.6-17.4,0.6-20.6c0.7,0,1.2,0,1.5,0c0.4,0,0.9,0,1.6,0
			c-0.4,5.4-0.7,12.6-1.1,21.9c-0.4,9.2-0.6,16.1-0.6,20.8c-0.7,0-1.2,0-1.6,0C457.6,78.5,457.1,78.5,456.4,78.5z M457.9,25l0.1-4.2
			c0.7,0,1.3,0,2,0s1.4,0,2,0l-0.1,4.2c-0.7,0-1.3-0.1-2-0.1S458.6,24.9,457.9,25z"/>
		<path class="st1" d="M498.7,75c-0.2,1.2-0.5,2.2-0.6,3.3c-3.4,0.7-6.4,1.1-9.4,1.1c-2.7,0-5.3-0.4-7.7-1.2c-2.3-0.8-4.4-2.1-6.1-4
			c-1.8-1.9-2.9-4.1-3.9-6.9c-0.8-2.7-1.3-5.6-1.3-8.7c0-4.1,0.7-8.1,2-11.8c1.3-3.7,3.4-6.7,6.2-8.8s6.7-3.3,11.6-3.3
			c3.5,0,6.9,0.5,10.2,1.5c0,0.9,0.1,1.9,0.2,2.9c-2.7-0.9-4.9-1.5-6.4-1.8c-1.5-0.2-2.9-0.4-4.2-0.4c-2.8,0-5.3,0.6-7.4,1.8
			c-2.1,1.2-3.9,2.8-5.3,4.8c-1.4,2.1-2.5,4.4-3,7c-0.6,2.6-0.9,5.1-0.9,7.7c0,2.8,0.4,5.4,0.9,7.8c0.7,2.5,1.8,4.4,3.2,6
			c1.4,1.5,3.3,2.7,5.4,3.5c2.1,0.8,4.3,1.2,6.7,1.2c1.3,0,2.7-0.1,4.1-0.4C494.3,76.3,496.3,75.8,498.7,75z"/>
	</g>
	<g>
		<path class="st1" d="M190.8,99.2h2.8l5,17.1l9.8-17.1h2.7l-2.8,20.2h-1.9l2.6-17.9l0,0l-10.3,17.9h-0.8l-5.4-17.9l0,0l-2.6,17.9
			h-1.9L190.8,99.2z"/>
		<path class="st1" d="M224.2,113.9c-0.4,2.6-0.5,4.1-0.5,5.6h-1.6c0-0.7,0-1.4,0.1-2.1l0,0c-1.3,1.6-2.8,2.5-5,2.5
			c-2.2,0-4.4-1.2-4.1-4c0.6-4.1,5.4-4.4,7.9-4.4h2l0.1-0.8c0.4-2.3-1.2-3.2-3.3-3.2c-1.5,0-2.9,0.5-4.2,1.5l-0.8-1.2
			c1.4-1.2,3.6-1.9,5.4-1.9c3.2,0,5,1.4,4.6,4.8L224.2,113.9z M220.9,112.8c-2.8,0-5.8,0.7-6.2,2.9c-0.2,1.6,1.3,2.5,2.7,2.5
			c3.6,0,4.9-2.3,5.3-4.6l0.1-0.9L220.9,112.8L220.9,112.8z"/>
		<path class="st1" d="M229.3,110.1c0.1-0.9,0.2-3,0.4-3.7h1.8c-0.1,0.9-0.2,2.1-0.2,2.3h0.1c0.9-1.4,2.8-2.7,4.9-2.7
			c4.1,0,4.7,2.8,4.2,5.7l-1.2,7.8h-1.8l1.1-7.8c0.4-2.1,0-4.2-2.7-4.2c-2.6,0-4.8,1.8-5.4,5.4l-0.9,6.7h-1.8L229.3,110.1z"/>
		<path class="st1" d="M254.9,113.9c-0.4,2.6-0.5,4.1-0.5,5.6h-1.6c0-0.7,0-1.4,0.1-2.1l0,0c-1.3,1.6-2.8,2.5-5,2.5
			c-2.2,0-4.4-1.2-4.1-4c0.6-4.1,5.4-4.4,7.9-4.4h2l0.1-0.8c0.4-2.3-1.2-3.2-3.3-3.2c-1.5,0-2.9,0.5-4.2,1.5l-0.8-1.2
			c1.4-1.2,3.6-1.9,5.4-1.9c3.2,0,5,1.4,4.6,4.8L254.9,113.9z M251.7,112.8c-2.8,0-5.8,0.7-6.2,2.9c-0.2,1.6,1.3,2.5,2.7,2.5
			c3.6,0,4.9-2.3,5.3-4.6l0.1-0.9L251.7,112.8L251.7,112.8z"/>
		<path class="st1" d="M272.2,118.6c-0.9,6.5-5.5,7.7-8.2,7.7s-5-1.1-6.2-2.8l1.5-1.3c0.9,1.6,2.8,2.5,4.9,2.5c5.3,0,6-4.6,6.2-6.1
			l0.2-1.9l0,0c-1.3,1.5-3.2,2.6-5.4,2.6c-3.9,0-6.7-3-6.1-6.8c0.6-3.7,4.2-6.8,8.1-6.8c2.2,0,3.9,1.1,4.7,2.6l0,0l0.4-2.2h1.8
			L272.2,118.6z M266.9,107.4c-2.9,0-5.6,2.3-6,5.3s1.6,5.3,4.6,5.3c2.9,0,5.6-2.3,6-5.3C271.8,109.7,269.8,107.4,266.9,107.4z"/>
		<path class="st1" d="M288.2,117.1c-1.6,2-3.7,2.8-6.1,2.8c-4.1,0-6.3-2.9-5.7-7c0.6-4,3.7-6.9,7.6-6.9c4.1,0,5.7,3.2,5.4,6.2
			l-0.1,1.2h-11.1c-0.2,1.4,0.4,5,4.3,5c1.8,0,3.7-0.9,4.8-2.3L288.2,117.1z M287.8,111.8c0.4-2.3-1.4-4.3-4-4.3
			c-3.7,0-5.4,3.6-5.4,4.3H287.8z"/>
		<path class="st1" d="M302.7,123.5c-0.9,1.6-2.1,2.8-4.1,2.8c-0.6,0-1.2-0.1-1.6-0.2l0.4-1.6c0.5,0.1,1.1,0.4,1.5,0.4
			c1.3,0,2-1.2,2.6-2.2l1.6-3l-3.5-13.3h1.9l2.8,11.1l5.8-11.1h1.9L302.7,123.5z"/>
		<path class="st1" d="M321.1,106c4.1,0,6.5,2.9,6,7c-0.6,4.1-3.9,7-7.9,7s-6.5-2.9-6-7C313.6,108.9,317,106,321.1,106z
			 M319.3,118.3c3.3,0,5.6-2.5,6-5.4c0.5-2.9-1.3-5.4-4.4-5.4c-3.2,0-5.6,2.5-6,5.4C314.4,115.9,316.1,118.3,319.3,118.3z"/>
		<path class="st1" d="M341.7,115.7c-0.1,0.9-0.2,3-0.4,3.7h-1.8c0.1-0.9,0.2-2.1,0.2-2.3h-0.1c-0.9,1.4-2.8,2.7-4.9,2.7
			c-4.1,0-4.7-2.8-4.2-5.7l1.2-7.8h1.8l-1.1,7.8c-0.4,2.1,0,4.2,2.7,4.2c2.6,0,4.8-1.8,5.4-5.4l0.9-6.7h1.8L341.7,115.7z"/>
		<path class="st1" d="M347.2,110.1c0.1-0.9,0.2-3,0.4-3.7h1.8c-0.1,0.9-0.2,2.1-0.2,2.3c1.1-1.5,2.6-2.7,4.6-2.7
			c0.4,0,0.6,0,0.9,0.1l-0.5,1.6c-0.2-0.1-0.5-0.1-0.7-0.1c-2.9,0-4.6,2.1-5,4.7l-1.1,7.2h-1.8L347.2,110.1z"/>
		<path class="st1" d="M374.2,117.4c-1.5,1.5-3.3,2.3-5.3,2.3c-4.1,0-6.5-2.9-6-7c0.6-4.1,3.9-7,7.9-7c1.9,0,3.5,0.8,4.6,2.3
			l-1.5,1.1c-0.8-1.1-1.9-1.8-3.3-1.8c-3.3,0-5.6,2.5-6,5.4c-0.4,2.9,1.3,5.4,4.4,5.4c1.4,0,2.8-0.7,3.9-1.9L374.2,117.4z"/>
		<path class="st1" d="M384.7,106c4.1,0,6.5,2.9,6,7c-0.6,4.1-3.9,7-7.9,7s-6.5-2.9-6-7C377.3,108.9,380.7,106,384.7,106z
			 M383.1,118.3c3.3,0,5.6-2.5,6-5.4c0.5-2.9-1.3-5.4-4.4-5.4s-5.6,2.5-6,5.4C378.1,115.9,379.8,118.3,383.1,118.3z"/>
		<path class="st1" d="M395,110.1c0.1-0.9,0.2-3,0.4-3.7h1.8c-0.1,0.9-0.2,2.1-0.2,2.3h0.1c0.9-1.4,2.8-2.7,4.9-2.7
			c4.1,0,4.7,2.8,4.2,5.7l-1.2,7.8h-1.8l1.1-7.8c0.4-2.1,0-4.2-2.7-4.2c-2.6,0-4.8,1.8-5.4,5.4l-0.9,6.7h-1.8L395,110.1z"/>
		<path class="st1" d="M417.7,107.7h-3.7l-1.2,8.7c-0.1,1.2,0.5,1.9,1.5,1.9c0.7,0,1.4-0.2,2-0.5v1.5c-0.7,0.2-1.6,0.5-2.3,0.5
			c-2.5,0-3.2-1.5-2.9-3.4l1.2-8.7h-2.8l0.2-1.5h2.8l0.6-3.9h1.8l-0.6,3.9h3.7L417.7,107.7z"/>
		<path class="st1" d="M430.2,113.9c-0.4,2.6-0.5,4.1-0.5,5.6h-1.6c0-0.7,0-1.4,0.1-2.1l0,0c-1.3,1.6-2.8,2.5-5,2.5
			c-2.2,0-4.4-1.2-4.1-4c0.6-4.1,5.4-4.4,7.9-4.4h2l0.1-0.8c0.4-2.3-1.2-3.2-3.3-3.2c-1.5,0-2.9,0.5-4.2,1.5l-0.8-1.2
			c1.4-1.2,3.6-1.9,5.4-1.9c3.2,0,5,1.4,4.6,4.8L430.2,113.9z M426.9,112.8c-2.8,0-5.8,0.7-6.2,2.9c-0.2,1.6,1.3,2.5,2.7,2.5
			c3.6,0,4.9-2.3,5.3-4.6l0.1-0.9L426.9,112.8L426.9,112.8z"/>
		<path class="st1" d="M436.1,106.2h1.8l-1.9,13.2h-1.8L436.1,106.2z M437.9,99.7c0.7,0,1.2,0.6,1.2,1.3c-0.1,0.7-0.8,1.3-1.5,1.3
			c-0.7,0-1.2-0.6-1.1-1.3C436.5,100.3,437.2,99.7,437.9,99.7z"/>
		<path class="st1" d="M442.2,110.1c0.1-0.9,0.2-3,0.4-3.7h1.8c-0.1,0.9-0.2,2.1-0.2,2.3h0.1c0.9-1.4,2.8-2.7,4.9-2.7
			c4.1,0,4.7,2.8,4.2,5.7l-1.2,7.8h-1.6l1.1-7.8c0.4-2.1,0-4.2-2.7-4.2c-2.6,0-4.8,1.8-5.4,5.4l-0.9,6.7h-1.8L442.2,110.1z"/>
		<path class="st1" d="M468.7,117.1c-1.6,2-3.7,2.8-6.1,2.8c-4.1,0-6.3-2.9-5.7-7c0.6-4,3.7-6.9,7.6-6.9c4.1,0,5.7,3.2,5.4,6.2
			l-0.1,1.2h-11.1c-0.2,1.4,0.4,5,4.3,5c1.8,0,3.7-0.9,4.8-2.3L468.7,117.1z M468.2,111.8c0.4-2.3-1.4-4.3-4-4.3
			c-3.7,0-5.4,3.6-5.4,4.3H468.2z"/>
		<path class="st1" d="M474,110.1c0.1-0.9,0.2-3,0.4-3.7h1.8c-0.1,0.9-0.2,2.1-0.2,2.3c1.1-1.5,2.6-2.7,4.6-2.7c0.4,0,0.6,0,0.9,0.1
			l-0.5,1.6c-0.2-0.1-0.5-0.1-0.7-0.1c-2.9,0-4.6,2.1-5,4.7l-1.1,7.2h-1.4L474,110.1z"/>
		<path class="st1" d="M482.8,116c0.5,1.4,2,2.2,3.5,2.2s3.2-0.9,3.4-2.5c0.5-3.6-7.7-1.1-7-6.1c0.4-2.6,2.9-3.9,5-3.9
			c2.1,0,3.7,0.8,4.3,2.5l-1.6,0.9c-0.5-1.2-1.3-1.9-2.8-1.9c-1.3,0-2.9,0.7-3,2.1c-0.5,3.6,7.7,0.8,7,6.2c-0.4,2.7-2.8,4.1-5.4,4.1
			c-2.2,0-4.2-0.8-4.9-2.7L482.8,116z"/>
	</g>
	<path class="st2" d="M154.3,14c-0.9,0-1.9,0-2.8,0c-7.7,0.6-12.9,5-16.4,11.7c-0.1-0.1-0.2-0.2-0.2-0.4
		c-4.1-8.4-12.6-10.9-20.7-9.6c-0.5,0.1-0.9,0.1-1.2,0.8c-1.1,3.7-1.3,7.4,0.5,10.9c1.8,3.7,4.9,6.1,8.1,8.4
		c1.9,1.3,3.7,2.6,5.4,4.2c2.6,2.8,2.8,5.7,0.2,8.2c-3.7,3.5-8.1,6.1-13.4,6.4c-10.9,0.8-21.7,0.5-32.6,0.5c-0.8,0-1.2-0.1-1.2-1.1
		c0-1.2-0.2-2.3-0.5-3.5c-1.1-4.6-4.1-7.5-7.9-7.6c-2.3-0.1-4.6,0.7-6.5,1.9c-4.1,2.2-7.5,5.4-10.5,8.8c-0.7,0.8-1.4,1.2-2.5,1.2
		c-9.6,0-19.3-0.1-28.9,1.1C12.2,57.1,4.9,64,2.9,74.7c-0.4,1.8-0.2,3.6-0.8,5.3c0,0.4,0,0.7,0,1.2C2.5,81.7,2.4,82.4,3,83
		c9.9,11.2,21.9,19.5,36.2,24.2c12.5,4,25.3,4.4,38.1,2.7c1.8-0.2,2.9,0.2,4.2,1.2c2.5,1.9,4.9,3.7,7.8,4.9c2.6,0.9,4.4-0.1,5.1-2.7
		c0.4-1.3,0.2-2.7,0.1-4.1c-0.1-0.9-0.6-2-0.2-2.7c0.4-0.8,1.6-0.7,2.5-1.1c6.9-3.3,13.6-7,19.8-11.5c10.6-7.5,19.5-16.5,24.7-28.8
		c3.9-9.2,6.7-18.8,6.9-29c0-0.8,0.5-1.2,0.9-1.5c6-5.3,8.2-11.8,6.7-19.6C155.2,14.3,155,14,154.3,14z M68.6,47.2
		c3.4-1.3,5.7-0.1,7,3.3c0.4,1.1,0.6,2.2,0.7,3.4c0.1,0.7-0.1,1.1-0.8,0.9c-5.6,0-11.3,0-17.3,0C61.3,51.6,64.5,48.7,68.6,47.2z
		 M12.4,87.6c0.6-0.2,1.1,0,1.5,0.1c11.3,4.4,23.1,7.7,35.2,9.5c5.3,0.8,10.5,1.3,15.9,1.3c0.9,0,1.6,0.2,2.3,0.9c2.2,2,4.6,4,6.9,6
		c0.4,0.4,0.7,0.7,1.3,1.2C51.5,109.5,30.4,103.9,12.4,87.6z M122.9,84.1c-8.3,7.5-17.7,13.2-27.7,18c-2,0.9-2,0.9-2.7-1.2
		c-0.5-1.5-0.9-3.2-1.5-4.7c-0.2-0.7-0.2-0.9,0.6-1.2c12-4.1,23.8-9,34.8-15.3c0.2-0.1,0.5-0.4,0.9-0.1
		C126.1,81.4,124.5,82.7,122.9,84.1z M145.6,32.6c-0.9,0.7-1.3,1.4-1.3,2.6c-0.1,11.6-3.4,22.3-8.7,32.6c-0.9,1.8-2.5,2.9-4,4.1
		c-6.3,4.9-13.4,8.4-20.7,11.7c-6.5,2.9-13.3,5.7-20.1,8.1c-1.2,0.4-1.9,0.5-2.2-0.9c0-0.2-0.1-0.4-0.2-0.5
		c-1.2-2.3-1.6-2.5-3.7-0.6c-0.5,0.5-0.2,0.7,0,1.1c2.9,5.5,4.9,11.5,6,17.5c0.2,1.1,0.2,2.2,0.4,3.4c0,1.1-0.4,1.4-1.4,0.8
		c-2.8-1.5-5.3-3.4-7.7-5.3c-6.5-5-12.6-10.5-18.7-16c-0.4-0.4-0.8-1.3-1.4-0.9c-0.8,0.6-1.4,1.4-2.1,2.2c-0.2,0.2,0.2,0.5,0.5,0.6
		c0.6,0.6,1.3,1.2,2.2,2.1c-9.5-0.4-18.5-1.9-27.2-4.1c-9.7-2.5-19.1-5.7-28.1-9.8C6,80.7,5.8,80.2,5.8,79c0.5-4.7,1.6-9,4.6-12.7
		c3.5-4.6,8.4-6.3,13.9-6.9c10.4-1.2,20.8-0.9,31.2-0.8c8.7,0,17.4,0.2,26.1,0.4c8.9,0.1,17.8,0.2,26.7-0.1c3-0.1,6.2-0.2,9.2-0.8
		c5.5-1.2,10.1-4.1,13.7-8.5c2.6-3.2,2-7.6-0.9-11.1c-1.3-1.6-2.9-2.8-4.7-4c-2.1-1.4-4.1-2.9-6-4.7c-2.7-2.6-4-5.5-3.6-9.2
		c0.1-1.1,0.6-1.3,1.5-1.3c8.4-0.2,13.9,4.1,15.9,12.5c0.6,2.3,1.1,4.7,1.5,7.2c0.7-1.6,0.9-3.3,1.3-4.8c1.1-4.8,2.9-9,6.5-12.4
		c2.5-2.3,5.4-3.6,8.8-4c0.8-0.1,1.1,0,1.1,0.9C152.6,24.4,150.4,29.1,145.6,32.6z"/>
</g>
</svg>
